<svg xmlns="http://www.w3.org/2000/svg" width="96" height="96" viewBox="0 0 96 96"><defs><style>.a{fill:#cb6868;}</style></defs><g transform="translate(-1 -1)"><path class="a" d="M92.355,1H5.645A4.651,4.651,0,0,0,1,5.645V67.581a4.651,4.651,0,0,0,4.645,4.645H47.452a24.774,24.774,0,0,0,49.548,0V5.645A4.651,4.651,0,0,0,92.355,1ZM5.645,4.1h86.71A1.551,1.551,0,0,1,93.9,5.645v7.742H4.1V5.645A1.551,1.551,0,0,1,5.645,4.1ZM70.677,71.585,55.862,86.4A21.626,21.626,0,0,1,70.677,50.627Zm-12.626,17L72.226,74.415,86.4,88.589a21.56,21.56,0,0,1-28.348,0ZM88.589,86.4,73.774,71.585V50.627A21.626,21.626,0,0,1,88.589,86.4ZM72.226,47.452A24.8,24.8,0,0,0,47.667,69.129H5.645A1.551,1.551,0,0,1,4.1,67.581v-51.1H93.9V60.258A24.788,24.788,0,0,0,72.226,47.452Z" transform="translate(0 0)"/><path class="a" d="M38.1,53.333a15.538,15.538,0,0,1,11.26-14.9l-.842-2.981A18.65,18.65,0,0,0,35,53.333Z" transform="translate(18.645 18.892)"/><path class="a" d="M35.2,49.38a18.442,18.442,0,0,0,.962,3.38l2.885-1.127a15.464,15.464,0,0,1-.8-2.815Z" transform="translate(18.754 26.223)"/><path class="a" d="M56.955,45.562l2.968-.883a18.443,18.443,0,0,0-1.256-3.134L55.91,42.954A15.331,15.331,0,0,1,56.955,45.562Z" transform="translate(30.112 22.234)"/><path class="a" d="M57.031,47.71q0,.576-.042,1.14l3.089.226c.033-.451.05-.907.05-1.366a18.779,18.779,0,0,0-.107-2.005l-3.078.331a16.149,16.149,0,0,1,.088,1.674Z" transform="translate(30.678 24.516)"/><path class="a" d="M56.062,52.17l2.806,1.313a18.6,18.6,0,0,0,1.146-3.176l-3-.779a15.332,15.332,0,0,1-.954,2.642Z" transform="translate(30.195 26.612)"/><path class="a" d="M9,5h3.1V8.1H9Z" transform="translate(4.387 2.194)"/><path class="a" d="M5,5H8.1V8.1H5Z" transform="translate(2.194 2.194)"/><path class="a" d="M13,5h3.1V8.1H13Z" transform="translate(6.581 2.194)"/><path class="a" d="M31.323,13H9.645A4.651,4.651,0,0,0,5,17.645V30.032a4.651,4.651,0,0,0,4.645,4.645H31.323a4.651,4.651,0,0,0,4.645-4.645V17.645A4.651,4.651,0,0,0,31.323,13Zm1.548,17.032a1.551,1.551,0,0,1-1.548,1.548H9.645A1.551,1.551,0,0,1,8.1,30.032V17.645A1.551,1.551,0,0,1,9.645,16.1H31.323a1.551,1.551,0,0,1,1.548,1.548Z" transform="translate(2.194 6.581)"/><path class="a" d="M31.323,29H9.645A4.651,4.651,0,0,0,5,33.645V46.032a4.651,4.651,0,0,0,4.645,4.645H31.323a4.651,4.651,0,0,0,4.645-4.645V33.645A4.651,4.651,0,0,0,31.323,29Zm1.548,17.032a1.551,1.551,0,0,1-1.548,1.548H9.645A1.551,1.551,0,0,1,8.1,46.032V33.645A1.551,1.551,0,0,1,9.645,32.1H31.323a1.551,1.551,0,0,1,1.548,1.548Z" transform="translate(2.194 15.355)"/><path class="a" d="M20.226,22.94,15.581,18.3,8.293,25.583l2.189,2.189,5.1-5.1,4.645,4.645,8.837-8.837-2.189-2.189Z" transform="translate(3.999 8.386)"/><path class="a" d="M24.484,33h-3.1v6.194h-3.1V36.1h-3.1v3.1H12.1V33H9v9.29H27.581v-3.1h-3.1Z" transform="translate(4.387 17.548)"/><path class="a" d="M29,13h3.1v3.1H29Z" transform="translate(15.355 6.581)"/><path class="a" d="M33,13H73.258v3.1H33Z" transform="translate(17.548 6.581)"/><path class="a" d="M29,17H75.452v3.1H29Z" transform="translate(15.355 8.774)"/><path class="a" d="M29,21h9.29v3.1H29Z" transform="translate(15.355 10.968)"/><path class="a" d="M37,21H71.065v3.1H37Z" transform="translate(19.742 10.968)"/><path class="a" d="M29,25H56.871v3.1H29Z" transform="translate(15.355 13.161)"/><path class="a" d="M49,25h3.1v3.1H49Z" transform="translate(26.323 13.161)"/><path class="a" d="M53,25h3.1v3.1H53Z" transform="translate(28.516 13.161)"/><path class="a" d="M57,25h3.1v3.1H57Z" transform="translate(30.71 13.161)"/></g></svg>