<svg xmlns="http://www.w3.org/2000/svg" width="121.167" height="104.677" viewBox="0 0 121.167 104.677"><defs><style>.a{opacity:0.07;}</style></defs><g class="a" transform="translate(0 -34.571)"><g transform="translate(0 34.571)"><path d="M.026,110.4a28.92,28.92,0,1,0,19.5-27.267c6.491-37.227,35.521-61.234,8.61-41.476C-1.7,63.572-.006,109.523.027,110.365.027,110.378.026,110.39.026,110.4Z" transform="translate(0 -34.571)"/><path d="M266.087,110.4a28.92,28.92,0,1,0,19.5-27.267c6.491-37.227,35.521-61.234,8.61-41.476-29.84,21.91-28.144,67.861-28.11,68.7C266.088,110.378,266.087,110.39,266.087,110.4Z" transform="translate(-202.606 -34.571)"/></g></g></svg>