<svg xmlns="http://www.w3.org/2000/svg" width="78.324" height="96.001" viewBox="0 0 78.324 96.001"><defs><style>.a{fill:#68c9cb;}</style></defs><g transform="translate(0 0)"><path class="a" d="M307.667,395.6a1.406,1.406,0,0,0-1.976.223l-5.98,7.5-3.759-3.487a1.406,1.406,0,1,0-1.913,2.062l4.871,4.518a1.407,1.407,0,0,0,.956.375,1.511,1.511,0,0,0,1.1-.53l6.924-8.684A1.406,1.406,0,0,0,307.667,395.6Zm0,0" transform="translate(-238.541 -321.179)"/><path class="a" d="M76.474,283.059a3.353,3.353,0,0,0-3.349,3.349v18.814a3.354,3.354,0,0,0,3.349,3.349h3.674a3.353,3.353,0,0,0,3.349-3.349V286.408a3.353,3.353,0,0,0-3.349-3.349Zm4.21,14.821H75.938v-4.131h4.747Zm-.536,7.879H76.474a.538.538,0,0,1-.537-.537v-4.529h4.747v4.529a.537.537,0,0,1-.536.537Zm.536-19.351v4.529H75.938v-4.529a.538.538,0,0,1,.537-.537h3.674a.537.537,0,0,1,.536.537Zm0,0" transform="translate(-59.414 -229.985)"/><path class="a" d="M154.989,283.059a3.353,3.353,0,0,0-3.349,3.349v18.814a3.353,3.353,0,0,0,3.349,3.349h3.674a3.354,3.354,0,0,0,3.349-3.349V286.408a3.353,3.353,0,0,0-3.349-3.349ZM159.2,297.88h-4.747v-4.131H159.2Zm-.537,7.879h-3.674a.537.537,0,0,1-.536-.537v-4.529H159.2v4.529a.538.538,0,0,1-.537.537Zm.537-19.351v4.529h-4.747v-4.529a.537.537,0,0,1,.536-.537h3.674A.538.538,0,0,1,159.2,286.408Zm0,0" transform="translate(-123.208 -229.985)"/><path class="a" d="M45.02,88.406H4.3a1.492,1.492,0,0,1-1.49-1.49V44.984a1.491,1.491,0,0,1,1.49-1.49H62.934a1.491,1.491,0,0,1,1.49,1.49V59.356a1.406,1.406,0,1,0,2.813,0V44.984a4.307,4.307,0,0,0-4.3-4.3H61.266V27.648a27.648,27.648,0,1,0-55.3,0V40.682H4.3a4.307,4.307,0,0,0-4.3,4.3V86.916a4.308,4.308,0,0,0,4.3,4.3H45.019a1.406,1.406,0,0,0,0-2.813Zm5.843-47.725H16.373V27.648a17.245,17.245,0,1,1,34.49,0ZM8.783,27.648a24.835,24.835,0,1,1,49.671,0V40.682H53.675V27.648a20.058,20.058,0,1,0-40.115,0V40.682H8.783Zm0,0" transform="translate(0)"/><path class="a" d="M249.534,294.408a15.7,15.7,0,0,0-9.01,2.829v-10.83a3.353,3.353,0,0,0-3.349-3.349H233.5a3.353,3.353,0,0,0-3.349,3.349v18.814a3.353,3.353,0,0,0,3.349,3.349h.327a15.789,15.789,0,1,0,15.705-14.162Zm-16.569-.658h4.747v4.13h-4.747Zm.536-7.879h3.674a.538.538,0,0,1,.537.537v4.529h-4.747v-4.529A.537.537,0,0,1,233.5,285.871Zm0,19.887a.537.537,0,0,1-.536-.537v-4.529h3.969a15.753,15.753,0,0,0-2.554,5.066Zm16.033,17.414A12.976,12.976,0,1,1,262.51,310.2,12.991,12.991,0,0,1,249.534,323.173Zm0,0" transform="translate(-186.999 -229.985)"/></g></svg>