<svg xmlns="http://www.w3.org/2000/svg" width="102.739" height="96" viewBox="0 0 102.739 96"><defs><style>.a{fill:#8f68cb;}</style></defs><g transform="translate(0 -16.793)"><g transform="translate(10.839 45.919)"><path class="a" d="M134.327,181.339,123.15,164.079a4.664,4.664,0,0,0-3.929-2.137H69.9a4.664,4.664,0,0,0-3.926,2.131L54.766,181.336A4.691,4.691,0,0,0,55.2,187l35.851,40.249a4.685,4.685,0,0,0,3.5,1.568h0a4.686,4.686,0,0,0,3.5-1.567L133.893,187A4.692,4.692,0,0,0,134.327,181.339Zm-17.371-15.384-9.4,14.536L98.15,165.955Zm-13.088,16.224H85.218l9.325-14.411ZM90.936,165.955l-9.38,14.5-9.377-14.5Zm-22.467,1.652,9.425,14.571H59Zm-8.616,18.584h20.2l10.678,34.661Zm34.691,33.419-10.3-33.419h20.592Zm3.816,1.244,10.679-34.663h20.2Zm12.885-38.676,9.417-14.561,9.429,14.561Z" transform="translate(-54.014 -161.942)"/></g><g transform="translate(0 66.156)"><path class="a" d="M6.087,262.793H2.007a2.007,2.007,0,1,0,0,4.013h4.08a2.007,2.007,0,1,0,0-4.013Z" transform="translate(0 -262.793)"/></g><g transform="translate(94.646 66.156)"><path class="a" d="M477.754,262.793h-4.08a2.007,2.007,0,0,0,0,4.013h4.08a2.007,2.007,0,1,0,0-4.013Z" transform="translate(-471.667 -262.793)"/></g><g transform="translate(77.628 31.262)"><path class="a" d="M396.948,89.485a2.007,2.007,0,0,0-2.838,0l-6.665,6.665a2.007,2.007,0,0,0,2.838,2.838l6.665-6.665A2.007,2.007,0,0,0,396.948,89.485Z" transform="translate(-386.857 -88.897)"/></g><g transform="translate(14.52 31.226)"><g transform="translate(0 0)"><path class="a" d="M82.449,95.972l-6.665-6.666a2.007,2.007,0,0,0-2.838,2.838l6.665,6.665a2.007,2.007,0,0,0,2.838-2.838Z" transform="translate(-72.358 -88.718)"/></g></g><g transform="translate(49.414 16.793)"><g transform="translate(0 0)"><path class="a" d="M248.261,16.793a2.007,2.007,0,0,0-2.007,2.007V31.876a2.007,2.007,0,0,0,4.013,0V18.8A2.007,2.007,0,0,0,248.261,16.793Z" transform="translate(-246.254 -16.793)"/></g></g><g transform="translate(49.413 36.658)"><g transform="translate(0 0)"><path class="a" d="M249.675,116.378a2.005,2.005,0,1,0,.588,1.419A2.021,2.021,0,0,0,249.675,116.378Z" transform="translate(-246.25 -115.79)"/></g></g></g></svg>